<svg width="20" height="20" viewBox="0 0 20 20" fill="none" xmlns="http://www.w3.org/2000/svg">
<path d="M10 0C4.4775 0 0 4.4775 0 10C0 15.5225 4.4775 20 10 20C15.5225 20 20 15.5225 20 10C20 4.4775 15.5225 0 10 0ZM15 10.8333H10.8333V15C10.8333 15.4608 10.46 15.8333 10 15.8333C9.54 15.8333 9.16667 15.4608 9.16667 15V10.8333H5C4.54 10.8333 4.16667 10.4608 4.16667 10C4.16667 9.53917 4.54 9.16667 5 9.16667H9.16667V5C9.16667 4.53917 9.54 4.16667 10 4.16667C10.46 4.16667 10.8333 4.53917 10.8333 5V9.16667H15C15.46 9.16667 15.8333 9.53917 15.8333 10C15.8333 10.4608 15.46 10.8333 15 10.8333Z" fill="white"/>
</svg>
