<svg width="25" height="25" viewBox="0 0 25 25" fill="none" xmlns="http://www.w3.org/2000/svg">
<path d="M8.18841 14.5042C8.56862 14.1052 8.93737 13.6552 9.22278 13.175C9.67174 12.4177 9.07695 11.4583 8.19987 11.4583H4.30299C3.42487 11.4583 2.83112 12.4177 3.28008 13.175C3.56445 13.6552 3.93424 14.1062 4.31445 14.5042C1.84987 15.6354 0.00195312 18.7344 0.00195312 21.3656C0.00195312 23.3687 1.63737 24.999 3.64779 24.999H8.85612C10.8665 24.999 12.502 23.3687 12.502 21.3656C12.502 18.7333 10.652 15.6354 8.18841 14.5042ZM8.85508 22.9167H3.64674C2.78529 22.9167 2.08424 22.2219 2.08424 21.3667C2.08424 18.976 4.34258 16.1458 6.25091 16.1458C8.15924 16.1458 10.4176 18.976 10.4176 21.3667C10.4176 22.2219 9.71654 22.9167 8.85508 22.9167ZM21.8759 0H6.7707C4.76133 0 3.12591 1.63646 3.12591 3.64583V8.33333C3.12591 8.90833 3.59258 9.375 4.16758 9.375C4.74258 9.375 5.20924 8.90833 5.20924 8.33333V3.64583C5.20924 2.78437 5.91029 2.08333 6.77174 2.08333C7.6332 2.08333 8.33424 2.78437 8.33424 3.64583C8.33424 5.08125 9.50299 6.25 10.9384 6.25H19.7926V19.7917C19.7926 21.5146 18.3905 22.9167 16.6676 22.9167H14.5842C14.0092 22.9167 13.5426 23.3833 13.5426 23.9583C13.5426 24.5333 14.0092 25 14.5842 25H16.6676C19.5395 25 21.8759 22.6635 21.8759 19.7917V6.25H22.3967C23.8322 6.25 25.0009 5.08125 25.0009 3.64583V3.125C25.0009 1.40208 23.5988 0 21.8759 0ZM22.9176 3.64583C22.9176 3.93333 22.6842 4.16667 22.3967 4.16667H10.9384C10.6509 4.16667 10.4176 3.93333 10.4176 3.64583C10.4176 3.08646 10.2905 2.55729 10.0655 2.08333H21.8759C22.4499 2.08333 22.9176 2.55104 22.9176 3.125V3.64583Z" fill="black"/>
</svg>
