<svg width="23" height="25" viewBox="0 0 23 25" fill="none" xmlns="http://www.w3.org/2000/svg">
<path d="M6.77083 16.6667H1.04167C0.466667 16.6667 0 16.2 0 15.625C0 15.05 0.466667 14.5833 1.04167 14.5833H6.21354L7.9875 11.9219C8.19271 11.6135 8.55208 11.4292 8.91875 11.4604C9.28958 11.4833 9.61979 11.7021 9.78646 12.0344L12.1083 16.6792L13.1958 15.0479C13.3896 14.7583 13.7146 14.5844 14.0625 14.5844H18.75C19.325 14.5844 19.7917 15.051 19.7917 15.626C19.7917 16.201 19.325 16.6677 18.75 16.6677H14.6198L12.8458 19.3292C12.6521 19.6198 12.326 19.7927 11.9792 19.7927C11.9573 19.7927 11.9354 19.7927 11.9146 19.7906C11.5438 19.7677 11.2135 19.549 11.0469 19.2167L8.725 14.5719L7.6375 16.2031C7.44375 16.4927 7.11875 16.6667 6.77083 16.6667ZM22.9167 10.9219V19.7917C22.9167 22.6635 20.5802 25 17.7083 25H7.29167C4.41979 25 2.08333 22.6635 2.08333 19.7917C2.08333 19.2167 2.55 18.75 3.125 18.75C3.7 18.75 4.16667 19.2167 4.16667 19.7917C4.16667 21.5146 5.56875 22.9167 7.29167 22.9167H17.7083C19.4313 22.9167 20.8333 21.5146 20.8333 19.7917V10.9219C20.8333 10.7521 20.825 10.5833 20.8094 10.4167H15.625C13.9021 10.4167 12.5 9.01458 12.5 7.29167V2.10729C12.3333 2.09167 12.1646 2.08333 11.9948 2.08333H7.29167C5.56875 2.08333 4.16667 3.48542 4.16667 5.20833V11.4583C4.16667 12.0333 3.7 12.5 3.125 12.5C2.55 12.5 2.08333 12.0333 2.08333 11.4583V5.20833C2.08333 2.33646 4.41979 0 7.29167 0H11.9948C13.9427 0 15.7729 0.758333 17.151 2.13542L20.7813 5.76562C22.1583 7.14271 22.9167 8.97396 22.9167 10.9219ZM20.1469 8.33333C19.9198 7.93854 19.6396 7.56979 19.3083 7.23958L15.6781 3.60937C15.3469 3.27812 14.9792 2.99792 14.5844 2.77083V7.29271C14.5844 7.86667 15.0521 8.33438 15.626 8.33438H20.1479L20.1469 8.33333Z" fill="black"/>
</svg>
