<svg width="25" height="25" viewBox="0 0 25 25" fill="none" xmlns="http://www.w3.org/2000/svg">
<g clip-path="url(#clip0_268_132)">
<path d="M18.7501 12.5C18.7501 13.075 18.2835 13.5417 17.7085 13.5417C17.1335 13.5417 16.6668 13.075 16.6668 12.5C16.6668 11.925 17.1335 11.4583 17.7085 11.4583C18.2835 11.4583 18.7501 11.925 18.7501 12.5ZM7.2918 5.20833C7.8668 5.20833 8.33346 4.74271 8.33346 4.16667C8.33346 3.01771 9.26784 2.08333 10.4168 2.08333C11.5658 2.08333 12.5001 3.01771 12.5001 4.16667C12.5001 4.74271 12.9668 5.20833 13.5418 5.20833C14.1168 5.20833 14.5835 4.74271 14.5835 4.16667C14.5835 1.86875 12.7147 0 10.4168 0C8.11888 0 6.25013 1.86875 6.25013 4.16667C6.25013 4.74271 6.7168 5.20833 7.2918 5.20833ZM25.0001 13.5417V15.625C25.0001 16.7771 24.221 17.4781 23.3668 17.6604C22.6783 19.3833 21.4168 20.8385 19.7918 21.7792V21.875C19.7918 23.5979 18.3897 25 16.6668 25C15.3085 25 14.1501 24.1292 13.7199 22.9167H11.2793C10.8491 24.1292 9.69076 25 8.33242 25C6.60951 25 5.20742 23.5979 5.20742 21.875V21.7927C2.46263 20.2104 0.851172 17.2333 1.05846 14.0312C1.12409 13.0125 1.38138 12.0448 1.79284 11.1604C0.733464 10.6594 -0.00195312 9.58125 -0.00195312 8.33333C-0.00195312 6.61042 1.40013 5.20833 3.12305 5.20833C3.69805 5.20833 4.16471 5.67396 4.16471 6.25C4.16471 6.82604 3.69805 7.29167 3.12305 7.29167C2.54805 7.29167 2.08138 7.75833 2.08138 8.33333C2.08138 8.84479 2.45221 9.27083 2.93867 9.35833C4.52305 7.45937 6.95221 6.25 9.65013 6.25H15.2366C16.0001 4.71042 17.4262 3.63333 19.3272 3.18125C19.9428 3.03646 20.5803 3.17812 21.0783 3.57083C21.5835 3.97083 21.8741 4.56875 21.8741 5.2125V9.08229C22.5074 9.80208 23.0137 10.625 23.3658 11.5062C24.221 11.6885 25.0001 12.3896 25.0001 13.5417ZM22.9168 13.5417H22.6105C22.1501 13.5417 21.7439 13.2385 21.6126 12.7969C21.3272 11.8385 20.8001 10.9469 20.0887 10.2167C19.898 10.0219 19.7918 9.76042 19.7918 9.48958V5.2125C18.7762 5.45417 17.4324 6.07708 16.9126 7.64479C16.7658 8.08542 16.3366 8.38854 15.8814 8.35729C15.8105 8.35417 9.65221 8.33438 9.65221 8.33438C6.21159 8.33438 3.35013 10.8958 3.13867 14.1667C2.97201 16.7385 4.36888 19.1167 6.69805 20.224C7.06159 20.3969 7.2918 20.7635 7.2918 21.1646V21.876C7.2918 22.451 7.75951 22.9177 8.33346 22.9177C8.90742 22.9177 9.37513 22.451 9.37513 21.876C9.37513 21.301 9.8418 20.8344 10.4168 20.8344H14.5835C15.1585 20.8344 15.6251 21.3 15.6251 21.876C15.6251 22.4521 16.0928 22.9177 16.6668 22.9177C17.2408 22.9177 17.7085 22.451 17.7085 21.876V21.1531C17.7085 20.7521 17.9387 20.3865 18.3012 20.2135C19.9074 19.4469 21.1137 18.0458 21.6126 16.3719C21.7439 15.9302 22.1501 15.6271 22.6105 15.6271H22.9168V13.5437V13.5417Z" fill="black"/>
</g>
<defs>
<clipPath id="clip0_268_132">
<rect width="25" height="25" fill="white"/>
</clipPath>
</defs>
</svg>
